<?xml version="1.0" standalone="no"?>
<!DOCTYPE svg PUBLIC "-//W3C//DTD SVG 20010904//EN" "http://www.w3.org/TR/2001/REC-SVG-20010904/DTD/svg10.dtd">
<svg version="1.0" xmlns="http://www.w3.org/2000/svg" width="400.000000pt" height="120.000000pt" viewBox="0 0 400.000000 120.000000" preserveAspectRatio="xMidYMid meet">
  <metadata>
    Created by potrace 1.14, written by Peter Selinger 2001-2017
  </metadata>
  <g transform="translate(0.000000,120.000000) scale(0.100000,-0.100000)" fill="#000000" stroke="none">
    <path
      d="M2893 1074 c-181 -67 -206 -376 -39 -479 43 -26 59 -30 120 -30 150
1 235 93 236 256 0 123 -40 203 -124 246 -43 22 -142 26 -193 7z m128 -44 c74
-21 119 -99 119 -207 -1 -107 -34 -165 -114 -198 -67 -28 -144 3 -186 77 -21
36 -25 56 -25 123 0 70 4 86 29 128 20 35 40 54 69 68 48 22 59 22 108 9z"/>
    <path
      d="M3374 1071 c-56 -25 -84 -64 -84 -115 0 -68 29 -102 124 -146 88 -40
106 -59 106 -110 0 -51 -38 -80 -105 -80 -31 0 -71 6 -89 14 -33 14 -34 14
-41 -11 -7 -29 2 -38 55 -53 77 -22 154 -5 208 45 35 31 37 37 37 93 0 76 -21
101 -120 148 -100 46 -127 82 -100 134 24 46 119 60 174 26 6 -4 15 4 21 19
13 35 15 33 -27 44 -56 16 -113 13 -159 -8z"/>
    <path
      d="M3755 1071 c-57 -26 -77 -53 -82 -108 -6 -74 19 -106 121 -153 88
-40 106 -59 106 -110 0 -51 -38 -80 -105 -80 -31 0 -71 6 -89 14 -33 14 -34
14 -41 -11 -7 -29 2 -38 55 -53 121 -34 238 26 247 127 7 69 -22 108 -114 154
-91 45 -113 64 -113 101 0 44 16 66 58 77 35 10 95 3 121 -13 6 -4 15 4 21 19
13 35 15 33 -27 44 -56 16 -113 13 -158 -8z"/>
    <path d="M790 825 l0 -255 30 0 30 0 0 213 0 212 40 -70 c21 -38 79 -133 128
-210 86 -135 91 -140 126 -143 l36 -3 0 255 0 256 -30 0 -30 0 0 -207 0 -208
-30 55 c-17 30 -74 123 -128 207 -97 152 -97 153 -134 153 l-38 0 0 -255z"/>
    <path
      d="M1387 936 c-76 -28 -116 -92 -117 -187 0 -116 68 -184 185 -184 80 0
115 11 115 35 0 27 -9 30 -61 18 -84 -19 -157 20 -175 94 l-6 27 133 3 134 3
-2 43 c-5 114 -104 185 -206 148z m107 -58 c15 -13 29 -38 32 -55 l7 -33 -102
0 -101 0 15 36 c8 20 15 38 15 40 0 2 12 10 28 18 39 22 77 19 106 -6z"/>
    <path
      d="M2525 935 c-49 -18 -74 -50 -75 -96 0 -43 33 -78 102 -108 26 -11 51
-28 57 -39 28 -53 -30 -94 -107 -73 -46 12 -61 6 -62 -25 0 -13 65 -34 103
-34 45 0 107 31 122 61 35 66 9 122 -73 157 -26 11 -56 30 -66 41 -41 45 23
96 88 71 35 -13 34 -13 46 10 8 15 7 21 -8 29 -34 18 -87 21 -127 6z"/>
    <path
      d="M1640 935 c0 -2 27 -42 60 -88 33 -47 60 -87 60 -91 0 -3 -29 -47
-65 -96 l-65 -90 39 0 c38 0 41 3 82 70 24 39 46 70 49 70 3 0 25 -31 49 -70
41 -68 44 -70 83 -70 l40 0 -66 94 -65 94 60 84 c32 45 59 87 59 91 0 5 -14 7
-32 5 -31 -3 -61 -36 -113 -123 -9 -15 -18 -7 -58 54 -43 65 -50 71 -82 71
-19 0 -35 -2 -35 -5z"/>
    <path d="M2042 786 l3 -155 29 -30 c49 -51 128 -53 186 -4 l30 25 0 -26 c0
-22 4 -26 30 -26 l30 0 0 186 0 185 -32 -3 -33 -3 -3 -130 c-3 -125 -4 -131
-29 -157 -19 -20 -37 -28 -61 -28 -76 0 -92 36 -92 208 l0 112 -31 0 -30 0 3
-154z"/>
    <path d="M73 784 c-3 -8 -1 -20 4 -25 5 -5 114 -8 269 -7 251 3 259 4 259 23
0 19 -8 20 -263 23 -232 2 -263 0 -269 -14z"/>
    <path d="M73 694 c-3 -9 0 -20 8 -25 18 -11 500 -11 518 0 8 5 11 16 8 25 -6
14 -37 16 -267 16 -230 0 -261 -2 -267 -16z"/>
    <path d="M75 609 c-16 -26 21 -29 271 -27 222 3 259 5 259 18 0 13 -37 15
-262 18 -183 2 -264 -1 -268 -9z"/>
    <path
      d="M114 500 c-29 -12 -54 -49 -54 -80 0 -39 28 -70 86 -96 56 -25 74
-46 74 -88 0 -44 -34 -68 -88 -64 -26 2 -53 6 -61 9 -7 2 -15 -1 -18 -8 -6
-17 82 -33 122 -22 61 17 93 86 65 140 -6 10 -34 31 -63 45 -70 35 -87 52 -87
85 0 50 46 77 105 60 27 -7 35 -6 35 4 0 24 -70 34 -116 15z"/>
    <path d="M343 396 c-41 -18 -63 -62 -63 -123 0 -89 60 -142 141 -126 91 18
126 160 56 230 -30 30 -90 39 -134 19z m114 -38 c66 -62 24 -188 -62 -188 -71
0 -113 86 -78 158 31 64 91 76 140 30z"/>
    <path
      d="M603 391 c-27 -17 -33 -18 -33 -6 0 8 -6 15 -12 15 -10 0 -12 -30
-10 -125 2 -69 7 -125 11 -125 5 0 10 43 13 95 4 104 16 127 70 140 21 5 33 1
52 -19 24 -23 26 -32 26 -121 0 -80 2 -95 16 -95 14 0 15 14 12 105 -3 89 -6
107 -24 125 -30 31 -82 35 -121 11z"/>
    <path d="M823 400 c-13 -5 -23 -14 -23 -20 0 -7 8 -9 23 -3 36 12 79 7 94 -13
19 -25 16 -54 -4 -54 -35 0 -95 -22 -114 -41 -38 -38 -20 -108 31 -124 25 -8
90 12 90 28 0 7 5 4 11 -5 23 -41 31 -17 27 88 -3 102 -4 107 -31 130 -29 25
-65 30 -104 14z"/>
    <path
      d="M1448 392 c-30 -16 -38 -17 -38 -6 0 8 -6 14 -12 14 -10 0 -12 -41
-10 -180 2 -106 7 -180 12 -180 6 0 10 31 10 69 l0 68 41 -20 c35 -17 45 -18
80 -8 54 16 79 58 79 133 0 49 -4 62 -27 88 -37 40 -85 48 -135 22z m85 -13
c79 -36 64 -198 -18 -207 -45 -6 -74 6 -90 38 -31 60 -11 144 39 166 38 16 40
17 69 3z"/>
    <path d="M1698 394 c-37 -20 -58 -63 -58 -121 0 -92 62 -143 149 -125 51 11
52 32 2 25 -58 -8 -89 3 -111 40 -38 61 -32 67 75 67 90 0 95 1 95 21 0 34
-29 85 -56 98 -33 15 -63 13 -96 -5z"/>
    <path d="M1164 338 c13 -35 33 -85 45 -111 31 -71 28 -94 -20 -139 -44 -42
-45 -60 -3 -38 31 17 62 69 104 175 18 44 41 101 51 128 15 38 16 47 5 47 -9
0 -29 -39 -52 -100 -35 -90 -54 -122 -54 -87 0 27 -73 187 -86 187 -11 0 -8
-15 10 -62z"/>
  </g>
</svg>
